<svg width="84" height="132" viewBox="0 0 84 132" fill="none" xmlns="http://www.w3.org/2000/svg">
<path d="M47.4506 46.4424C41.5586 40.4302 36.8921 32.6738 33.8282 23.8618C31.4714 17.0692 28.0776 4.53969 28.0776 2.56617C28.0776 -0.50883 22.4213 -1.74797 22.4213 4.21847C22.4213 7.29348 20.3473 25.1469 14.0311 35.8406C8.04478 46.0293 5.73511 48.6459 1.53998 50.3899C-0.863961 51.3537 -0.486918 52.0876 2.90689 53.235C11.2971 56.0805 15.0681 62.919 22.657 88.9878C27.0878 104.133 29.8217 103.674 32.1313 87.3814C34.3939 71.1802 42.7841 52.776 48.7704 50.7566C50.7501 50.1141 50.6087 49.701 47.4506 46.4424ZM27.6534 75.7239L26.7578 79.8545C26.3807 78.8907 21.4786 58.6507 12.8527 53.235C10.4959 51.7663 10.0716 51.1697 11.4386 51.1697C15.8223 51.1697 22.657 39.8335 24.731 28.9103C25.7208 23.9077 25.8622 23.7241 27.0878 26.845C29.6331 33.4999 33.8282 39.7876 39.5789 45.6163L43.3498 49.472C42.8313 50.0686 32.2256 54.107 27.6534 75.7239Z" fill="white"/>
<path d="M81.436 100.508C74.0356 94.633 68.615 84.2151 68.615 75.6326C68.615 71.8691 63.4771 67.5545 61.5445 78.2482C59.1877 91.5121 57.6322 95.1378 52.3058 100.324C47.9222 104.546 47.875 104.271 53.39 105.74C58.5278 107.117 62.3459 113.726 64.8441 125.613C66.3996 133.002 72.0088 133.323 72.2445 125.796C72.5744 115.194 75.0726 109.274 80.729 105.786C84.3113 103.537 84.4056 102.848 81.436 100.508ZM75.7797 102.941C74.1299 103.491 69.652 107.3 68.615 108.952C67.2009 111.293 67.248 111.293 65.5983 108.723C64.1842 106.52 60.8375 104.088 58.6221 103.674C56.9252 103.307 56.9723 103.216 59.7062 100.6C61.0261 99.3607 62.8644 96.836 63.8071 95.0001C65.9282 91.0072 65.6454 91.0536 67.6723 94.2204C69.2277 96.607 71.7731 99.2226 74.9784 101.701C75.874 102.298 76.1568 102.803 75.7797 102.941Z" fill="white"/>
</svg>
