<svg width="72" height="72" viewBox="0 0 72 72" fill="none" xmlns="http://www.w3.org/2000/svg">
<path d="M54.7705 19.5813C68.152 8.95384 73.2714 3.56793 70.8384 2.70235C69.5712 2.26956 69.0137 2.36569 66.7834 3.37553C62.475 5.39523 46.8126 18.0906 46.8126 19.5813C46.8126 21.6491 52.0841 21.6972 54.7705 19.5813Z" fill="white"/>
<path d="M19.6446 19.966C21.3173 18.9081 21.2159 18.7158 14.7279 12.0315C11.2812 8.42469 8.44288 6.16456 6.3647 5.29897C3.52621 4.09677 2.1576 5.73186 3.27272 7.07833C12.8018 18.7158 16.7554 21.7934 19.6446 19.966Z" fill="white"/>
<path d="M64.7561 35.6428C61.6642 34.7772 45.8502 30.0165 44.6844 29.5837C44.1269 29.3914 43.7214 28.4296 43.5186 26.7946C41.8459 14.5803 39.2097 2.029 38.0439 0.634453C37.1822 -0.423483 34.2423 -0.0868673 33.4313 1.11533C32.6203 2.31753 28.8695 14.4841 26.6392 23.3323L25.1698 29.1028C-3.62082 37.7587 -5.19223 37.5663 7.83442 41.3653L19.3407 44.7314C25.8794 46.6549 26.031 46.7026 26.3858 48.2414C26.8927 50.4534 30.1873 61.2256 31.4545 66.371C34.1409 77.4313 39.6157 70.6028 44.431 50.0211L45.5461 45.3085C46.1543 45.2123 50.0061 44.8757 66.6315 41.4614C70.4331 40.6439 69.318 36.8931 64.7561 35.6428ZM57.5585 37.9991C57.153 38.3357 46.0525 40.8844 43.8729 40.8844C41.2372 40.8844 40.6289 42.0866 37.6384 53.3873C35.6616 60.8409 35.51 60.9847 34.3949 56.6568C33.0263 51.2228 30.238 44.8757 29.8832 43.385C29.5791 42.0385 26.7406 41.0767 15.7414 38.5762C10.2168 37.3259 9.35509 36.8931 11.433 36.316C14.0181 35.5947 26.4365 31.7477 27.8557 31.7477C29.2243 31.7477 30.3901 30.7859 30.7956 29.3433L34.7492 14.7245C35.4588 12.1759 35.4593 12.1759 37.4361 22.1301C39.7171 33.3346 39.4631 32.8532 43.1126 33.5745C47.6745 34.4882 58.0147 37.6144 57.5585 37.9991Z" fill="white"/>
<path d="M48.3334 50.7905C48.3334 51.8484 61.7148 64.6879 63.5903 65.4092C67.5439 66.948 68.5576 64.9278 65.415 61.7059C56.9502 52.9058 48.3334 47.4243 48.3334 50.7905Z" fill="white"/>
<path d="M9.30434 53.8682C-0.427628 60.1196 -1.5428 61.5622 3.32318 61.5622C5.70549 61.5622 20.7594 51.6561 20.3032 50.3577C19.5936 48.338 16.1976 49.396 9.30434 53.8682Z" fill="white"/>
</svg>
