<svg width="137" height="159" viewBox="0 0 137 159" fill="none" xmlns="http://www.w3.org/2000/svg">
<path fill-rule="evenodd" clip-rule="evenodd" d="M114.169 37.001C101.935 28.2353 87.8638 17.8804 82.9658 13.6381C65.9928 -0.563682 46.2567 -3.67451 33.4613 6.13588C28.3318 10.0169 6.71296 66.3746 0.816822 91.6501C-0.320215 96.3255 1.42411 101.166 5.42685 103.8C17.9393 112.723 33.3992 123.867 53.2123 140.778C92.7251 174.17 111.262 151.103 107.677 143.752C106.221 140.91 106.199 137.227 107.63 135.469C110.82 131.406 131.379 63.81 134.898 59.2005C138.304 54.1595 137.748 53.8447 114.169 37.001ZM82.3939 119.521L31.1615 90.1311C33.8934 83.4239 36.8462 76.6586 44.5842 53.894C52.8676 29.6041 52.0961 30.2674 62.1698 38.9095C71.4101 47.0794 90.75 58.5873 101.256 65.273C88.7434 95.9719 87.153 98.9212 82.3939 119.521Z" fill="#FC773D" fill-opacity="0.5"/>
</svg>
