<svg width="165" height="196" viewBox="0 0 165 196" fill="none" xmlns="http://www.w3.org/2000/svg">
<path fill-rule="evenodd" clip-rule="evenodd" d="M109.472 2.30393C70.4436 -5.56369 35.4808 14.7389 20.4155 53.8398C12.5663 74.2118 12.1844 90.8567 19.3569 108.903L23.9426 120.481L19.2216 122.436C3.83798 128.584 -4.60294 154.2 3.39251 170.11C22.8742 208.937 89.7962 202.081 85.2961 161.856C84.5577 155.534 84.6843 155.205 87.5517 155.178C175.912 154.883 195.562 19.436 109.472 2.30393ZM143.522 93.5351C133.198 122.388 105.687 145.184 73.3436 139.326C60.4338 136.994 58.4537 139.25 62.9014 150.775C70.3218 170.238 51.9124 189.182 34.2279 180.293C15.7777 170.92 18.4947 141.212 38.5307 135.347C46.7869 132.868 48.2027 130.017 43.4744 124.988C34.9967 115.684 32.3533 87.1182 37.8995 67.3682C62.7428 -18.5313 174.198 8.56223 143.522 93.5351Z" fill="#FCBE2A" fill-opacity="0.5"/>
</svg>
