<svg width="139" height="151" viewBox="0 0 139 151" fill="none" xmlns="http://www.w3.org/2000/svg">
<path d="M28.1847 89.2446C28.4434 89.8717 32.1725 91.3055 37.8505 92.9636C57.2781 98.6002 56.3258 99.5999 57.7708 98.3902C59.3176 97.0953 58.5988 96.7521 46.2777 92.5564C33.0627 88.063 27.3214 86.9977 28.1847 89.2446Z" fill="white"/>
<path d="M46.4558 111.44C46.4209 111.907 46.758 111.997 48.5778 112.16C51.29 112.387 54.1783 111.015 53.2063 109.973C52.3906 109.137 46.5335 110.396 46.4558 111.44Z" fill="white"/>
<path d="M48.8115 120.3C36.1741 125.48 32.0684 127.567 31.5093 129.183C31.0299 130.495 31.9532 130.397 35.2025 128.791C37.9591 127.394 43.2067 125.093 48.4613 122.955C52.771 121.203 53.6504 120.669 54.2861 119.563C55.1265 118.016 53.9493 118.192 48.8115 120.3Z" fill="white"/>
<path d="M40.0036 71.2174C40.2446 71.8255 45.3119 75.277 48.7196 77.1822C49.5444 77.6391 51.5827 78.9697 53.2339 80.1184C56.4247 82.3739 56.668 82.4405 57.8281 81.4693C58.9271 80.5493 58.9623 80.587 53.3271 77.0707C43.5162 70.9422 39.1553 69.0254 40.0036 71.2174Z" fill="white"/>
<path d="M34.4868 111.235C37.291 111.25 38.8575 111.997 40.3636 110.736C42.7855 108.708 42.7458 108.472 37.3286 108.181C27.2926 107.64 18.912 108.447 18.4139 110.012C17.9769 111.525 24.0989 110.55 34.4868 111.235Z" fill="white"/>
<path d="M104.349 45.3914C104.765 42.8837 104.616 40.7811 103.98 40.0989C103.096 39.1514 101.569 39.9233 101.18 41.5654C98.5373 52.4501 97.9168 65.6579 100.019 65.6191C102.083 65.5784 102.612 63.853 103.392 54.6628C103.75 50.617 104.175 46.4483 104.349 45.3914Z" fill="white"/>
<path d="M61.7459 53.9601C62.9 56.4022 66.455 61.4576 72.8006 73.1192C74.0591 75.4402 74.0943 75.4779 75.2757 75.5011C76.2291 75.5129 77.4059 74.8318 77.6319 74.1026C77.8296 73.4985 68.8571 57.3881 65.412 52.1396C64.0356 50.1197 60.4082 51.1656 61.7459 53.9601Z" fill="white"/>
<path d="M120.862 45.5714C116.177 52.3618 108.843 66.0266 109.114 67.5213C109.285 68.5594 111.697 67.6873 112.547 66.267L115.671 60.9515C120.478 52.7765 125.886 42.1754 125.479 41.7395C124.628 40.8659 123.387 41.9054 120.862 45.5714Z" fill="white"/>
<path d="M80.406 44.7838C80.5725 45.623 80.9307 47.989 81.5609 54.6492C81.8329 57.6611 83.0067 63.4276 83.4308 63.8824C84.2792 64.792 84.1133 59.3291 82.9675 49.0848C82.7126 46.8685 82.5461 44.7469 82.6136 44.3529C82.8466 42.5043 80.1029 43.2153 80.406 44.7838Z" fill="white"/>
</svg>
