<svg width="113" height="147" viewBox="0 0 113 147" fill="none" xmlns="http://www.w3.org/2000/svg">
<path fill-rule="evenodd" clip-rule="evenodd" d="M103.309 57.7609C94.5212 57.9312 90.6822 56.1148 86.2536 49.7771C83.1477 45.3995 80.2307 33.8461 81.6188 31.6931C83.4544 28.8536 80.3546 28.3254 73.0909 30.1593C60.4444 33.3522 47.5208 23.4247 39.3971 4.09136C36.7713 -2.20996 28.5028 -1.35182 30.298 8.76422C34.731 33.6995 28.0361 52.2683 17.1093 45.6048C13.199 43.2328 8.43855 46.2373 10.5588 49.7166C17.769 61.3332 13.7846 83.8057 3.75146 88.0594C-0.742994 89.9316 -0.134089 93.7098 4.47053 92.5472C11.345 90.8116 30.1177 108.604 34.6169 121.233C37.5797 129.415 44.26 123.631 45.3951 122.116C51.3105 114.395 55.6619 117.148 64.9983 134.455C71.6701 146.945 77.4675 150.233 78.3893 142.135C81.103 118.181 84.6511 109.828 93.16 107.189C99.6325 105.227 99.4705 105.678 98.5899 93.4467C97.8583 82.8982 98.1897 77.6528 99.8568 73.8726C101.569 69.9991 106.998 63.6298 109.67 62.4636C115.364 59.8788 112.291 57.5414 103.309 57.7609ZM94.2545 66.4384C84.5837 78.1384 87.4167 87.1731 91.1374 102.456L86.0267 104.074C78.6398 106.512 74.0413 112.344 71.9389 122.051C71.1343 125.696 70.9201 125.667 68.4109 121.467C57.7513 103.839 41.7193 112.475 40.0007 112.5C39.7932 112.224 33.2902 96.5776 19.8083 89.9038C14.4453 87.2431 14.5232 87.5512 17.9347 84.3957C28.3446 74.8032 21.2525 52.998 21.2656 52.5031C21.5055 52.3606 42.3236 47.1043 42.0141 29.485C41.9692 25.4817 41.9042 25.4976 43.3891 27.0071C44.2062 27.784 46.8714 30.1431 49.4393 32.1166C58.0444 38.8746 62.4675 37.2665 74.3811 34.9959C74.4783 35.3811 69.6892 59.8584 93.3209 62.7405L96.959 63.2148L94.2545 66.4384Z" fill="#018DDF" fill-opacity="0.5"/>
</svg>
