<svg width="1440" height="245" viewBox="0 0 1440 245" fill="none" xmlns="http://www.w3.org/2000/svg">
<path fill-rule="evenodd" clip-rule="evenodd" d="M785 137.187L807.245 107.239C829.49 77.2913 875.216 17.3954 919.706 11.4058C964.196 5.41616 1009.92 53.3329 1054.41 59.3225C1100.14 65.3121 1144.63 29.3745 1189.12 17.3954C1234.84 5.41616 1279.33 17.3954 1323.82 29.3745C1369.55 41.3537 1414.04 53.3329 1458.53 65.3121C1504.25 77.2913 1548.74 89.2705 1594.47 77.2913C1638.96 65.3121 1683.45 29.3745 1729.18 11.4058C1773.67 -6.56303 1818.16 -6.56303 1863.88 35.3641C1908.37 77.2913 1952.86 161.146 1998.59 179.114C2043.08 197.083 2088.8 149.166 2133.29 125.208C2177.78 101.25 2223.51 101.25 2245.76 101.25H2268V245H2245.76C2223.51 245 2177.78 245 2133.29 245C2088.8 245 2043.08 245 1998.59 245C1952.86 245 1908.37 245 1863.88 245C1818.16 245 1773.67 245 1729.18 245C1683.45 245 1638.96 245 1594.47 245C1548.74 245 1504.25 245 1458.53 245C1414.04 245 1369.55 245 1323.82 245C1279.33 245 1234.84 245 1189.12 245C1144.63 245 1100.14 245 1054.41 245C1009.92 245 964.196 245 919.706 245C875.216 245 829.49 245 807.245 245H785V137.187Z" fill="#E0E2E3"/>
<path fill-rule="evenodd" clip-rule="evenodd" d="M-101 137.187L-78.755 107.239C-56.51 77.2913 -10.7842 17.3954 33.7058 11.4058C78.1958 5.41616 123.922 53.3329 168.412 59.3225C214.137 65.3121 258.628 29.3745 303.117 17.3954C348.843 5.41616 393.333 17.3954 437.823 29.3745C483.549 41.3537 528.039 53.3329 572.529 65.3121C618.255 77.2913 662.745 89.2705 708.471 77.2913C752.961 65.3121 797.451 29.3745 843.177 11.4058C887.667 -6.56303 932.157 -6.56303 977.882 35.3641C1022.37 77.2913 1066.86 161.146 1112.59 179.114C1157.08 197.083 1202.8 149.166 1247.29 125.208C1291.78 101.25 1337.51 101.25 1359.76 101.25H1382V245H1359.76C1337.51 245 1291.78 245 1247.29 245C1202.8 245 1157.08 245 1112.59 245C1066.86 245 1022.37 245 977.882 245C932.157 245 887.667 245 843.177 245C797.451 245 752.961 245 708.471 245C662.745 245 618.255 245 572.529 245C528.039 245 483.549 245 437.823 245C393.333 245 348.843 245 303.117 245C258.628 245 214.137 245 168.412 245C123.922 245 78.1958 245 33.7058 245C-10.7842 245 -56.51 245 -78.755 245H-101V137.187Z" fill="#E0E2E3"/>
</svg>
