<svg width="133" height="144" viewBox="0 0 133 144" fill="none" xmlns="http://www.w3.org/2000/svg">
<path d="M72.295 29.1838C76.2628 27.2558 66.9566 12.1558 61.9799 12.4406C60.1486 12.522 59.1967 13.9841 59.6979 15.9362C61.7218 24.4433 68.1391 31.1888 72.295 29.1838Z" fill="white"/>
<path d="M59.0724 42.3969C61.6959 41.9784 68.966 37.1207 68.6765 35.965C67.98 33.3233 61.2454 35.8926 56.9796 40.3524C55.8186 41.6102 56.9896 42.7202 59.0724 42.3969Z" fill="white"/>
<path d="M85.9446 48.6744C88.5418 46.7905 80.8938 35.2377 77.0219 35.1961C75.4468 35.2105 73.3455 36.8534 73.4986 37.9892C74.3915 45.3574 81.7889 51.6887 85.9446 48.6744Z" fill="white"/>
<path d="M88.9387 54.3997C88.2033 55.8238 88.7984 57.2328 93.0951 63.9132C97.8434 71.2161 108.444 72.9678 98.2465 56.5548C95.1797 51.6542 90.9431 50.6896 88.9387 54.3997Z" fill="white"/>
<path d="M87.2757 24.1961C91.3092 21.6861 92.2613 20.2235 90.3898 19.3248C88.3536 18.3672 76.2341 25.1985 76.7189 27.0437C77.2367 29.1028 81.0915 28.0286 87.2757 24.1961Z" fill="white"/>
<path d="M53.098 76.9527C48.8999 79.404 46.8195 80.3192 46.3168 81.812C45.3865 84.5649 51.0848 83.3411 56.5403 79.6809C61.8478 76.0687 58.8075 73.6426 53.098 76.9527Z" fill="white"/>
<path d="M91.9671 74.8846C89.0242 76.5442 84.4478 79.5668 83.8297 80.312C81.0776 83.4958 87.1826 82.7488 92.8874 79.2641C100.115 74.8526 99.3126 70.8035 91.9671 74.8846Z" fill="white"/>
<path d="M102.166 78.3526C103.108 86.0411 109.732 91.3899 114.247 88.1148C116.046 86.8106 112.162 76.3276 109.354 74.9794C107.318 74.0219 101.914 76.576 102.166 78.3526Z" fill="white"/>
<path d="M66.573 76.0256C63.9565 76.2015 61.5825 77.8047 61.8932 79.2419C62.3098 81.0773 66.6889 88.2917 67.7211 88.7899C69.6491 89.7665 75.0814 87.2512 74.6695 85.5906C73.9613 83.0167 68.0235 75.9235 66.573 76.0256Z" fill="white"/>
<path d="M118.975 58.145C115.775 57.8533 104.765 64.5329 105.238 66.4461C105.829 68.6896 109.2 67.7883 115.579 63.6362C121.639 59.7159 122.419 58.4375 118.975 58.145Z" fill="white"/>
<path d="M47.7426 57.7994C46.0903 59.4728 52.2639 69.2451 55.4495 70.022C58.1015 70.6515 63.8866 69.1272 59.9852 64.0007C54.4071 56.6466 51.9614 53.6112 47.7426 57.7994Z" fill="white"/>
<path d="M74.2192 61.5138C71.7368 62.1269 64.0132 67.7885 64.3261 68.8084C64.8603 70.9741 68.96 69.9004 73.9547 66.2776C78.9894 62.6257 79.144 60.3167 74.2192 61.5138Z" fill="white"/>
<path d="M28.0316 112.423C31.9994 110.495 22.6932 95.3951 17.7164 95.6799C15.8851 95.7613 14.9333 97.2234 15.4345 99.1755C17.4584 107.683 23.8757 114.428 28.0316 112.423Z" fill="white"/>
<path d="M14.809 125.636C17.4325 125.218 24.7026 120.36 24.4131 119.204C23.7166 116.563 16.982 119.132 12.7162 123.592C11.5552 124.849 12.7262 125.959 14.809 125.636Z" fill="white"/>
<path d="M41.6811 131.914C44.2784 130.03 36.6304 118.477 32.7585 118.435C31.1834 118.45 29.0821 120.093 29.2352 121.229C30.128 128.597 37.5255 134.928 41.6811 131.914Z" fill="white"/>
<path d="M43.0123 107.435C47.0458 104.925 47.9979 103.463 46.1264 102.564C44.0902 101.606 31.9707 108.438 32.4554 110.283C32.9732 112.342 36.828 111.268 43.0123 107.435Z" fill="white"/>
</svg>
