<svg width="172" height="205" viewBox="0 0 172 205" fill="none" xmlns="http://www.w3.org/2000/svg">
<path d="M35.9375 3.75349C70.3873 7.40236 103.656 19.6997 125.281 48.7745C144.799 75.018 144.497 106.356 108.482 115.552C91.4342 119.906 68.3109 113.671 60.4576 96.6234C51.7083 77.6307 77.9812 69.8001 91.5856 72.5413C123.361 78.9431 149.463 109.867 145.258 145.132C140.277 186.895 98.6228 175.19 98.7878 174.954" stroke="#F9C02B" stroke-opacity="0.5" stroke-width="6.79294" stroke-miterlimit="1.5" stroke-linecap="round" stroke-linejoin="round"/>
<path d="M127.791 150.026C126.194 153.509 123.333 155.95 120.604 158.531C111.642 167.008 99.2803 173.273 86.6721 173.25C99.6368 177.547 115.021 187.494 118.223 201.484" stroke="#F9C02B" stroke-opacity="0.5" stroke-width="6.79294" stroke-miterlimit="1.5" stroke-linecap="round" stroke-linejoin="round"/>
</svg>
