<svg width="348" height="347" viewBox="0 0 348 347" fill="none" xmlns="http://www.w3.org/2000/svg">
<path d="M116.956 158.173C108.348 157.551 108.896 163.215 106.495 160.596C103.437 157.229 96.5943 156.69 93.527 159.714C88.564 164.545 91.0376 178.542 98.9334 188.597C100.056 190.021 101.787 192.319 102.743 193.609C107.873 200.478 115.905 193.198 123.038 175.023C127.036 164.875 124.887 158.686 116.956 158.173ZM107.853 187.611L105.999 190.081C99.7265 176.249 96.0775 169.07 97.8951 164C99.36 159.877 100.741 160.606 102.764 166.748C103.938 170.347 104.864 171.914 106.055 172.573C111.39 175.423 110.19 167.649 115.092 163.369C116.61 161.995 117.471 162.963 117.904 166.429C118.227 169.997 113.394 180.265 107.853 187.611Z" fill="#F9C02B" fill-opacity="0.49"/>
<path d="M244.386 167.231C241.264 166.929 240.656 166.631 239.763 165.364C238.625 163.79 234.57 162.136 231.819 162.188C223.63 162.369 215.495 176.291 215.03 190.845C214.668 201.845 219.13 202.215 234.912 192.651C254.614 180.669 259.081 168.685 244.386 167.231ZM243.993 178.506C238.881 183.929 223.624 191.892 223.877 188.898C224.294 184.886 227.552 175.181 229.727 171.466C233.889 164.54 237.577 163.903 235.085 170.589C233.815 173.995 236.003 176.032 239.089 174.308C239.829 173.866 241.742 172.783 243.285 171.921C248.111 169.193 248.53 173.66 243.993 178.506Z" fill="#F9C02B" fill-opacity="0.49"/>
<path d="M189.647 138.425C187.677 138.696 186.747 138.493 186.091 137.746C179.754 130.643 169.748 135.893 169.447 146.342C168.811 172.541 175.145 174.83 195.73 155.85C204.627 147.599 200.868 136.859 189.647 138.425ZM194.444 148.115C193.054 150.111 189.441 152.285 185.419 155.168C178.18 160.516 178.944 160.585 178.577 154.629C178.21 149.248 176.019 145.487 176.203 143.256C176.504 140.136 179.999 134.614 182.813 141.912C184.24 145.605 186.694 146.735 188.548 144.265C193.28 138.126 196.574 145.101 194.444 148.115Z" fill="#F9C02B" fill-opacity="0.49"/>
<path d="M237.112 142.394C266.951 130.597 280.307 114.238 263.871 109.55L259.778 108.383L259.093 105.398C257.829 100.114 253.557 96.7257 247.85 96.6103C237.927 96.432 231.347 104.253 226.711 121.706C220.816 144.078 222.874 148.007 237.112 142.394ZM237.324 113.09C242.327 101.018 249.418 96.2608 252.884 102.581C254.728 105.927 254.264 110.064 251.972 111.006C242.783 114.837 237.928 122.654 243.482 124.724C248.025 126.417 254.496 122.363 258.162 115.612C261.333 109.61 266.374 111.704 264 118.074C262.777 121.355 260.189 123.479 250.9 128.925C245.201 132.261 230.099 139.42 229.885 138.838C229.473 137.822 234.737 119.453 237.324 113.09Z" fill="#F9C02B" fill-opacity="0.49"/>
<path d="M227.67 229.823C225.636 229.496 225.494 229.299 225.987 227.975C227.327 224.379 222.573 220.165 217.205 220.104C205.808 220.023 190.934 234.092 188.338 247.421C186.553 256.454 231.56 249.664 235.039 240.328C236.755 235.723 233.371 230.726 227.67 229.823ZM195.462 246.627C195.145 245.934 206.118 231.92 209.555 228.675C215.242 223.252 220.111 222.336 218.348 227.067C218.066 227.824 216.414 229.364 214.8 230.415C208.81 234.145 209.047 234.089 209.522 235.128C210.433 237.12 216.107 236.936 220.658 234.753C225.902 232.253 230.256 233.876 228.775 237.85C227.741 240.625 196.492 248.878 195.462 246.627Z" fill="#F9C02B" fill-opacity="0.49"/>
<path d="M151.642 204.146C154.605 204.101 167.326 189.445 169.599 183.539C172.326 176.222 167.292 170.251 159.263 171.354C158.129 171.505 157.05 171.894 156.956 172.146C156.838 172.462 154.874 171.945 152.626 171.035C144.974 168.04 141.852 171.402 141.775 182.796C141.676 195.402 145.675 204.149 151.642 204.146ZM152.111 177.237C152.973 181.869 157.357 182.641 158.908 178.477C160.131 175.197 163.723 174.237 163.359 177.334C162.995 180.431 152.645 194.318 151.131 193.754C150.058 193.354 149.195 180.82 150.031 177.611C151.063 173.685 151.449 173.614 152.111 177.237Z" fill="#F9C02B" fill-opacity="0.49"/>
<path d="M143.89 235.166C142.716 235.231 141.124 235.643 140.495 235.983C139.558 236.568 138.628 236.365 136.284 235.132C125.379 229.488 118.924 240.444 125.18 254.126C130.842 266.51 136.031 267.438 143.836 257.487C154.361 244.096 154.419 234.492 143.89 235.166ZM134.723 256.677C132.095 247.723 129.176 239.164 131.063 236.994C132.525 235.383 134.304 238.13 134.439 242.203C134.63 246.513 139.843 247.953 140.748 243.98C142.154 237.895 146.816 236.184 145.671 242.151C144.813 246.573 135.501 255.746 134.723 256.677Z" fill="#F9C02B" fill-opacity="0.49"/>
<path d="M168.808 95.0261C164.309 95.7201 164.372 95.7434 164.35 92.7178C164.396 88.3526 160.006 85.2803 154.325 85.6771C143.749 86.477 138.809 102.237 143.343 121.312C144.218 124.942 141.328 133.276 155.32 126.78C162.966 123.236 174.901 117.053 178.506 114.517C190.413 106.095 183.763 92.6973 168.808 95.0261ZM178.604 105.574C176.414 109.714 153.869 122.576 149.037 122.427C147.76 122.382 148.715 104.779 150.285 98.2517C152.566 89.0445 159.029 85.2033 158.747 93.2879C158.657 95.2657 158.158 97.9534 157.641 99.3411C155.862 103.922 160.209 105.758 164.047 102.016C171.417 94.7765 182.78 97.6471 178.604 105.574Z" fill="#F9C02B" fill-opacity="0.49"/>
</svg>
